<mxfile host="app.diagrams.net" modified="2023-07-10T16:23:18.635Z" agent="Mozilla/5.0 (Windows NT 10.0; Win64; x64) AppleWebKit/537.36 (KHTML, like Gecko) Chrome/114.0.0.0 Safari/537.36" etag="hrT67dpfOrwKdwWqeXNZ" version="21.6.1" type="device">
  <diagram name="Page-1" id="0cxLK6B1qZ-80W-4j8hx">
    <mxGraphModel dx="1679" dy="1223" grid="0" gridSize="10" guides="1" tooltips="1" connect="1" arrows="1" fold="1" page="0" pageScale="1" pageWidth="850" pageHeight="1100" math="0" shadow="0">
      <root>
        <mxCell id="0" />
        <mxCell id="1" parent="0" />
        <mxCell id="Iu25lgEWChFgaFbriD92-103" value="&lt;font style=&quot;font-size: 18px;&quot;&gt;Output&lt;/font&gt;" style="rounded=1;whiteSpace=wrap;html=1;fillColor=#f5f5f5;gradientColor=#b3b3b3;strokeColor=#666666;fontSize=14;fontStyle=1;rotation=-90;" parent="1" vertex="1">
          <mxGeometry x="1780" y="283.74" width="90" height="35" as="geometry" />
        </mxCell>
        <mxCell id="Iu25lgEWChFgaFbriD92-110" value="" style="strokeWidth=2;html=1;shape=mxgraph.flowchart.annotation_1;align=left;pointerEvents=1;direction=south;fontSize=14;fontStyle=1" parent="1" vertex="1">
          <mxGeometry x="1296" y="-75" width="546" height="50" as="geometry" />
        </mxCell>
        <mxCell id="Iu25lgEWChFgaFbriD92-111" value="&lt;font style=&quot;font-size: 18px;&quot;&gt;Decision Sub Graph&lt;/font&gt;" style="text;html=1;align=center;verticalAlign=middle;resizable=0;points=[];autosize=1;strokeColor=none;fillColor=none;fontSize=14;fontStyle=1" parent="1" vertex="1">
          <mxGeometry x="1456" y="-115.00000000000001" width="200" height="40" as="geometry" />
        </mxCell>
        <mxCell id="Iu25lgEWChFgaFbriD92-123" value="&lt;font style=&quot;font-size: 18px;&quot;&gt;Sub Graph1&lt;/font&gt;" style="text;html=1;align=center;verticalAlign=middle;resizable=0;points=[];autosize=1;strokeColor=none;fillColor=none;fontSize=14;fontStyle=1" parent="1" vertex="1">
          <mxGeometry x="551" y="32" width="130" height="40" as="geometry" />
        </mxCell>
        <mxCell id="Iu25lgEWChFgaFbriD92-125" value="&lt;font style=&quot;font-size: 18px;&quot;&gt;Skipping Sub Graph1 and Sub Graph2&lt;/font&gt;" style="text;html=1;align=center;verticalAlign=middle;resizable=0;points=[];autosize=1;strokeColor=none;fillColor=none;fontSize=14;fontStyle=1" parent="1" vertex="1">
          <mxGeometry x="715" y="462" width="350" height="40" as="geometry" />
        </mxCell>
        <mxCell id="Iu25lgEWChFgaFbriD92-127" value="&lt;font style=&quot;font-size: 18px;&quot;&gt;Merging Early Exit Sub Graph with Decision Sub Graph&lt;/font&gt;" style="text;html=1;align=center;verticalAlign=middle;resizable=0;points=[];autosize=1;strokeColor=none;fillColor=none;fontSize=14;fontStyle=1" parent="1" vertex="1">
          <mxGeometry x="645" y="499" width="500" height="40" as="geometry" />
        </mxCell>
        <mxCell id="Iu25lgEWChFgaFbriD92-145" value="&lt;font style=&quot;font-size: 48px;&quot;&gt;...&lt;/font&gt;" style="text;html=1;align=center;verticalAlign=middle;resizable=0;points=[];autosize=1;strokeColor=none;fillColor=none;fontSize=14;fontStyle=1" parent="1" vertex="1">
          <mxGeometry x="198" y="128.13" width="58" height="70" as="geometry" />
        </mxCell>
        <mxCell id="Iu25lgEWChFgaFbriD92-146" value="&lt;font style=&quot;font-size: 48px;&quot;&gt;...&lt;/font&gt;" style="text;html=1;align=center;verticalAlign=middle;resizable=0;points=[];autosize=1;strokeColor=none;fillColor=none;fontSize=14;fontStyle=1" parent="1" vertex="1">
          <mxGeometry x="198" y="364" width="58" height="70" as="geometry" />
        </mxCell>
        <mxCell id="Iu25lgEWChFgaFbriD92-147" value="&lt;font style=&quot;font-size: 18px;&quot;&gt;Early Exit Sub Graph&lt;/font&gt;" style="text;html=1;align=center;verticalAlign=middle;resizable=0;points=[];autosize=1;strokeColor=none;fillColor=none;fontSize=14;fontStyle=1;rotation=-90;" parent="1" vertex="1">
          <mxGeometry x="133" y="276.22" width="200" height="40" as="geometry" />
        </mxCell>
        <mxCell id="WK32DhDvXuLAIViGbRyr-121" style="edgeStyle=orthogonalEdgeStyle;rounded=0;orthogonalLoop=1;jettySize=auto;html=1;exitX=0.496;exitY=0.993;exitDx=0;exitDy=0;entryX=0.5;entryY=0;entryDx=0;entryDy=0;exitPerimeter=0;" parent="1" source="vSDdu6eOxFjw2Nqs_4SC-30" target="WK32DhDvXuLAIViGbRyr-117" edge="1">
          <mxGeometry relative="1" as="geometry">
            <mxPoint x="851" y="300" as="targetPoint" />
            <mxPoint x="819.3699999999999" y="300.6099999999999" as="sourcePoint" />
          </mxGeometry>
        </mxCell>
        <mxCell id="WK32DhDvXuLAIViGbRyr-51" value="&lt;b&gt;&lt;font style=&quot;font-size: 18px;&quot;&gt;Sum&lt;/font&gt;&lt;/b&gt;" style="rounded=1;whiteSpace=wrap;html=1;fillColor=#76608a;fontColor=#ffffff;strokeColor=#432D57;rotation=-90;" parent="1" vertex="1">
          <mxGeometry x="310" y="282.23" width="65" height="33.74" as="geometry" />
        </mxCell>
        <mxCell id="WK32DhDvXuLAIViGbRyr-62" value="" style="curved=1;endArrow=classic;html=1;rounded=0;exitX=0.5;exitY=1;exitDx=0;exitDy=0;fontSize=14;fontStyle=1;entryX=1;entryY=0.5;entryDx=0;entryDy=0;" parent="1" source="vSDdu6eOxFjw2Nqs_4SC-36" target="WK32DhDvXuLAIViGbRyr-51" edge="1">
          <mxGeometry width="50" height="50" relative="1" as="geometry">
            <mxPoint x="93.75" y="185" as="sourcePoint" />
            <mxPoint x="179.38" y="272" as="targetPoint" />
            <Array as="points">
              <mxPoint x="348" y="173" />
            </Array>
          </mxGeometry>
        </mxCell>
        <mxCell id="WK32DhDvXuLAIViGbRyr-63" value="" style="curved=1;endArrow=classic;html=1;rounded=0;exitX=0.5;exitY=1;exitDx=0;exitDy=0;fontSize=14;fontStyle=1;entryX=0;entryY=0.5;entryDx=0;entryDy=0;" parent="1" source="vSDdu6eOxFjw2Nqs_4SC-38" target="WK32DhDvXuLAIViGbRyr-51" edge="1">
          <mxGeometry width="50" height="50" relative="1" as="geometry">
            <mxPoint x="95" y="428.75" as="sourcePoint" />
            <mxPoint x="167.5" y="518" as="targetPoint" />
            <Array as="points">
              <mxPoint x="343" y="410" />
            </Array>
          </mxGeometry>
        </mxCell>
        <mxCell id="WK32DhDvXuLAIViGbRyr-101" value="" style="curved=1;endArrow=classic;html=1;rounded=0;fontSize=14;fontStyle=1;exitX=1;exitY=0.5;exitDx=0;exitDy=0;entryX=0.5;entryY=0;entryDx=0;entryDy=0;" parent="1" source="WK32DhDvXuLAIViGbRyr-117" target="WK32DhDvXuLAIViGbRyr-103" edge="1">
          <mxGeometry width="50" height="50" relative="1" as="geometry">
            <mxPoint x="870" y="230" as="sourcePoint" />
            <mxPoint x="905" y="190" as="targetPoint" />
            <Array as="points">
              <mxPoint x="875" y="210" />
              <mxPoint x="885" y="190" />
            </Array>
          </mxGeometry>
        </mxCell>
        <mxCell id="WK32DhDvXuLAIViGbRyr-102" style="edgeStyle=orthogonalEdgeStyle;rounded=0;orthogonalLoop=1;jettySize=auto;html=1;exitX=0.5;exitY=1;exitDx=0;exitDy=0;entryX=0.5;entryY=0;entryDx=0;entryDy=0;" parent="1" source="WK32DhDvXuLAIViGbRyr-103" target="WK32DhDvXuLAIViGbRyr-105" edge="1">
          <mxGeometry relative="1" as="geometry" />
        </mxCell>
        <mxCell id="WK32DhDvXuLAIViGbRyr-103" value="&lt;b&gt;&lt;font style=&quot;font-size: 18px;&quot;&gt;QuantizeLinear&lt;/font&gt;&lt;/b&gt;" style="rounded=1;whiteSpace=wrap;html=1;fillColor=#647687;fontColor=#ffffff;strokeColor=#314354;rotation=-90;" parent="1" vertex="1">
          <mxGeometry x="842" y="170.26" width="159" height="33.74" as="geometry" />
        </mxCell>
        <mxCell id="vSDdu6eOxFjw2Nqs_4SC-7" style="edgeStyle=orthogonalEdgeStyle;rounded=0;orthogonalLoop=1;jettySize=auto;html=1;exitX=0.5;exitY=1;exitDx=0;exitDy=0;entryX=0.5;entryY=0;entryDx=0;entryDy=0;" parent="1" source="WK32DhDvXuLAIViGbRyr-105" target="WK32DhDvXuLAIViGbRyr-110" edge="1">
          <mxGeometry relative="1" as="geometry" />
        </mxCell>
        <mxCell id="WK32DhDvXuLAIViGbRyr-105" value="&lt;b&gt;&lt;font style=&quot;font-size: 18px;&quot;&gt;QLinearConv&lt;/font&gt;&lt;/b&gt;" style="rounded=1;whiteSpace=wrap;html=1;fillColor=#6d8764;fontColor=#ffffff;strokeColor=#3A5431;rotation=-90;" parent="1" vertex="1">
          <mxGeometry x="913" y="167.51" width="143.5" height="37.5" as="geometry" />
        </mxCell>
        <mxCell id="WK32DhDvXuLAIViGbRyr-109" style="edgeStyle=orthogonalEdgeStyle;rounded=0;orthogonalLoop=1;jettySize=auto;html=1;exitX=0.5;exitY=1;exitDx=0;exitDy=0;entryX=0.5;entryY=0;entryDx=0;entryDy=0;" parent="1" source="WK32DhDvXuLAIViGbRyr-110" target="vSDdu6eOxFjw2Nqs_4SC-8" edge="1">
          <mxGeometry relative="1" as="geometry">
            <mxPoint x="1180.63" y="186.87999999999988" as="targetPoint" />
          </mxGeometry>
        </mxCell>
        <mxCell id="WK32DhDvXuLAIViGbRyr-110" value="&lt;b style=&quot;border-color: var(--border-color);&quot;&gt;&lt;font style=&quot;border-color: var(--border-color); font-size: 18px;&quot;&gt;QLinearConv&lt;/font&gt;&lt;/b&gt;" style="rounded=1;whiteSpace=wrap;html=1;fillColor=#6d8764;fontColor=#ffffff;strokeColor=#3A5431;rotation=-90;" parent="1" vertex="1">
          <mxGeometry x="976" y="168.38" width="148" height="37.5" as="geometry" />
        </mxCell>
        <mxCell id="WK32DhDvXuLAIViGbRyr-115" value="" style="curved=1;endArrow=classic;html=1;rounded=0;exitX=0.5;exitY=1;exitDx=0;exitDy=0;fontSize=14;fontStyle=1;entryX=1;entryY=0.5;entryDx=0;entryDy=0;" parent="1" source="vSDdu6eOxFjw2Nqs_4SC-9" target="WK32DhDvXuLAIViGbRyr-116" edge="1">
          <mxGeometry width="50" height="50" relative="1" as="geometry">
            <mxPoint x="1340" y="186.25" as="sourcePoint" />
            <mxPoint x="1415" y="320" as="targetPoint" />
            <Array as="points">
              <mxPoint x="1242" y="198" />
            </Array>
          </mxGeometry>
        </mxCell>
        <mxCell id="vSDdu6eOxFjw2Nqs_4SC-2" style="edgeStyle=orthogonalEdgeStyle;rounded=0;orthogonalLoop=1;jettySize=auto;html=1;exitX=0.5;exitY=1;exitDx=0;exitDy=0;entryX=0.5;entryY=0;entryDx=0;entryDy=0;" parent="1" source="WK32DhDvXuLAIViGbRyr-116" target="vSDdu6eOxFjw2Nqs_4SC-1" edge="1">
          <mxGeometry relative="1" as="geometry" />
        </mxCell>
        <mxCell id="WK32DhDvXuLAIViGbRyr-116" value="&lt;b&gt;&lt;font style=&quot;font-size: 18px;&quot;&gt;Sum&lt;/font&gt;&lt;/b&gt;" style="rounded=1;whiteSpace=wrap;html=1;fillColor=#76608a;fontColor=#ffffff;strokeColor=#432D57;rotation=-90;" parent="1" vertex="1">
          <mxGeometry x="1205.25" y="285" width="65" height="33.74" as="geometry" />
        </mxCell>
        <mxCell id="WK32DhDvXuLAIViGbRyr-117" value="&lt;b&gt;&lt;font style=&quot;font-size: 18px;&quot;&gt;Relu&lt;/font&gt;&lt;/b&gt;" style="rounded=1;whiteSpace=wrap;html=1;fillColor=#a20025;fontColor=#ffffff;strokeColor=#6F0000;rotation=-90;" parent="1" vertex="1">
          <mxGeometry x="835" y="283.74" width="65" height="33.74" as="geometry" />
        </mxCell>
        <mxCell id="WK32DhDvXuLAIViGbRyr-120" value="" style="curved=1;endArrow=classic;html=1;rounded=0;exitX=0;exitY=0.5;exitDx=0;exitDy=0;entryX=0;entryY=0.5;entryDx=0;entryDy=0;" parent="1" source="WK32DhDvXuLAIViGbRyr-117" target="WK32DhDvXuLAIViGbRyr-116" edge="1">
          <mxGeometry width="50" height="50" relative="1" as="geometry">
            <mxPoint x="905" y="300" as="sourcePoint" />
            <mxPoint x="955" y="250" as="targetPoint" />
            <Array as="points">
              <mxPoint x="885" y="410" />
              <mxPoint x="1025" y="430" />
              <mxPoint x="1233" y="417" />
            </Array>
          </mxGeometry>
        </mxCell>
        <mxCell id="WK32DhDvXuLAIViGbRyr-122" value="&lt;b&gt;&lt;font style=&quot;font-size: 18px;&quot;&gt;QuantizeLinear&lt;/font&gt;&lt;/b&gt;" style="rounded=1;whiteSpace=wrap;html=1;fillColor=#647687;fontColor=#ffffff;strokeColor=#314354;rotation=-90;" parent="1" vertex="1">
          <mxGeometry x="1285.5" y="285" width="154.5" height="33.74" as="geometry" />
        </mxCell>
        <mxCell id="WK32DhDvXuLAIViGbRyr-124" value="" style="curved=1;endArrow=classic;html=1;rounded=0;fontSize=14;fontStyle=1;exitX=1;exitY=0.5;exitDx=0;exitDy=0;entryX=0.5;entryY=0;entryDx=0;entryDy=0;" parent="1" source="WK32DhDvXuLAIViGbRyr-122" target="WK32DhDvXuLAIViGbRyr-125" edge="1">
          <mxGeometry width="50" height="50" relative="1" as="geometry">
            <mxPoint x="1490" y="263" as="sourcePoint" />
            <mxPoint x="1530" y="180" as="targetPoint" />
            <Array as="points">
              <mxPoint x="1374" y="82" />
            </Array>
          </mxGeometry>
        </mxCell>
        <mxCell id="vSDdu6eOxFjw2Nqs_4SC-17" style="edgeStyle=orthogonalEdgeStyle;rounded=0;orthogonalLoop=1;jettySize=auto;html=1;exitX=0.5;exitY=1;exitDx=0;exitDy=0;entryX=0.5;entryY=0;entryDx=0;entryDy=0;" parent="1" source="WK32DhDvXuLAIViGbRyr-125" target="vSDdu6eOxFjw2Nqs_4SC-12" edge="1">
          <mxGeometry relative="1" as="geometry" />
        </mxCell>
        <mxCell id="WK32DhDvXuLAIViGbRyr-125" value="&lt;b style=&quot;border-color: var(--border-color);&quot;&gt;&lt;font style=&quot;border-color: var(--border-color); font-size: 18px;&quot;&gt;QLinearConv&lt;/font&gt;&lt;/b&gt;" style="rounded=1;whiteSpace=wrap;html=1;fillColor=#6D8764;fontColor=#ffffff;strokeColor=#001DBC;rotation=-90;" parent="1" vertex="1">
          <mxGeometry x="1408.5" y="9" width="145" height="33.74" as="geometry" />
        </mxCell>
        <mxCell id="WK32DhDvXuLAIViGbRyr-126" value="" style="curved=1;endArrow=classic;html=1;rounded=0;fontSize=14;fontStyle=1;exitX=0;exitY=0.5;exitDx=0;exitDy=0;entryX=0.5;entryY=0;entryDx=0;entryDy=0;" parent="1" source="WK32DhDvXuLAIViGbRyr-122" target="WK32DhDvXuLAIViGbRyr-127" edge="1">
          <mxGeometry width="50" height="50" relative="1" as="geometry">
            <mxPoint x="1515" y="450" as="sourcePoint" />
            <mxPoint x="1530" y="420" as="targetPoint" />
            <Array as="points">
              <mxPoint x="1357" y="545" />
            </Array>
          </mxGeometry>
        </mxCell>
        <mxCell id="vSDdu6eOxFjw2Nqs_4SC-20" style="edgeStyle=orthogonalEdgeStyle;rounded=0;orthogonalLoop=1;jettySize=auto;html=1;exitX=0.5;exitY=1;exitDx=0;exitDy=0;entryX=0.606;entryY=-0.037;entryDx=0;entryDy=0;entryPerimeter=0;" parent="1" source="WK32DhDvXuLAIViGbRyr-127" target="vSDdu6eOxFjw2Nqs_4SC-16" edge="1">
          <mxGeometry relative="1" as="geometry" />
        </mxCell>
        <mxCell id="WK32DhDvXuLAIViGbRyr-127" value="&lt;b&gt;&lt;font style=&quot;font-size: 18px;&quot;&gt;QLinearConv&lt;/font&gt;&lt;/b&gt;" style="rounded=1;whiteSpace=wrap;html=1;fillColor=#6d8764;fontColor=#ffffff;strokeColor=#3A5431;rotation=-90;" parent="1" vertex="1">
          <mxGeometry x="1416.5" y="552" width="137" height="33.74" as="geometry" />
        </mxCell>
        <mxCell id="vSDdu6eOxFjw2Nqs_4SC-18" style="edgeStyle=orthogonalEdgeStyle;rounded=0;orthogonalLoop=1;jettySize=auto;html=1;exitX=0.5;exitY=1;exitDx=0;exitDy=0;entryX=0.5;entryY=0;entryDx=0;entryDy=0;" parent="1" source="WK32DhDvXuLAIViGbRyr-128" target="vSDdu6eOxFjw2Nqs_4SC-13" edge="1">
          <mxGeometry relative="1" as="geometry" />
        </mxCell>
        <mxCell id="WK32DhDvXuLAIViGbRyr-128" value="&lt;b style=&quot;border-color: var(--border-color);&quot;&gt;&lt;font style=&quot;border-color: var(--border-color); font-size: 18px;&quot;&gt;QLinearConv&lt;/font&gt;&lt;/b&gt;" style="rounded=1;whiteSpace=wrap;html=1;fillColor=#6D8764;fontColor=#ffffff;strokeColor=#001DBC;rotation=-90;" parent="1" vertex="1">
          <mxGeometry x="1414" y="198.13" width="142" height="33.74" as="geometry" />
        </mxCell>
        <mxCell id="vSDdu6eOxFjw2Nqs_4SC-19" style="edgeStyle=orthogonalEdgeStyle;rounded=0;orthogonalLoop=1;jettySize=auto;html=1;exitX=0.5;exitY=1;exitDx=0;exitDy=0;entryX=0.5;entryY=0;entryDx=0;entryDy=0;" parent="1" source="WK32DhDvXuLAIViGbRyr-129" target="vSDdu6eOxFjw2Nqs_4SC-15" edge="1">
          <mxGeometry relative="1" as="geometry" />
        </mxCell>
        <mxCell id="WK32DhDvXuLAIViGbRyr-129" value="&lt;b style=&quot;border-color: var(--border-color);&quot;&gt;&lt;font style=&quot;border-color: var(--border-color); font-size: 18px;&quot;&gt;QLinearConv&lt;/font&gt;&lt;/b&gt;" style="rounded=1;whiteSpace=wrap;html=1;fillColor=#6D8764;fontColor=#ffffff;strokeColor=#3A5431;rotation=-90;" parent="1" vertex="1">
          <mxGeometry x="1407.5" y="386" width="155" height="33.74" as="geometry" />
        </mxCell>
        <mxCell id="WK32DhDvXuLAIViGbRyr-130" value="" style="curved=1;endArrow=classic;html=1;rounded=0;exitX=0.75;exitY=1;exitDx=0;exitDy=0;entryX=0.5;entryY=0;entryDx=0;entryDy=0;" parent="1" source="WK32DhDvXuLAIViGbRyr-122" target="WK32DhDvXuLAIViGbRyr-128" edge="1">
          <mxGeometry width="50" height="50" relative="1" as="geometry">
            <mxPoint x="1650" y="350" as="sourcePoint" />
            <mxPoint x="1700" y="300" as="targetPoint" />
            <Array as="points">
              <mxPoint x="1413" y="228" />
              <mxPoint x="1449" y="214" />
            </Array>
          </mxGeometry>
        </mxCell>
        <mxCell id="WK32DhDvXuLAIViGbRyr-131" value="" style="curved=1;endArrow=classic;html=1;rounded=0;exitX=0.25;exitY=1;exitDx=0;exitDy=0;entryX=0.5;entryY=0;entryDx=0;entryDy=0;" parent="1" source="WK32DhDvXuLAIViGbRyr-122" target="WK32DhDvXuLAIViGbRyr-129" edge="1">
          <mxGeometry width="50" height="50" relative="1" as="geometry">
            <mxPoint x="1509" y="296" as="sourcePoint" />
            <mxPoint x="1556" y="277" as="targetPoint" />
            <Array as="points">
              <mxPoint x="1432" y="402" />
            </Array>
          </mxGeometry>
        </mxCell>
        <mxCell id="WK32DhDvXuLAIViGbRyr-139" style="edgeStyle=orthogonalEdgeStyle;rounded=0;orthogonalLoop=1;jettySize=auto;html=1;exitX=0.5;exitY=1;exitDx=0;exitDy=0;entryX=0.5;entryY=0;entryDx=0;entryDy=0;" parent="1" source="WK32DhDvXuLAIViGbRyr-132" target="WK32DhDvXuLAIViGbRyr-138" edge="1">
          <mxGeometry relative="1" as="geometry" />
        </mxCell>
        <mxCell id="WK32DhDvXuLAIViGbRyr-132" value="&lt;b&gt;&lt;font style=&quot;font-size: 18px;&quot;&gt;Sum&lt;/font&gt;&lt;/b&gt;" style="rounded=1;whiteSpace=wrap;html=1;fillColor=#76608a;fontColor=#ffffff;strokeColor=#432D57;rotation=-90;" parent="1" vertex="1">
          <mxGeometry x="1625" y="283.74" width="65" height="33.74" as="geometry" />
        </mxCell>
        <mxCell id="WK32DhDvXuLAIViGbRyr-134" value="" style="curved=1;endArrow=classic;html=1;rounded=0;exitX=0.5;exitY=1;exitDx=0;exitDy=0;entryX=1;entryY=0.5;entryDx=0;entryDy=0;" parent="1" source="vSDdu6eOxFjw2Nqs_4SC-12" target="WK32DhDvXuLAIViGbRyr-132" edge="1">
          <mxGeometry width="50" height="50" relative="1" as="geometry">
            <mxPoint x="1650" y="350" as="sourcePoint" />
            <mxPoint x="1700" y="300" as="targetPoint" />
            <Array as="points">
              <mxPoint x="1665" y="45" />
            </Array>
          </mxGeometry>
        </mxCell>
        <mxCell id="WK32DhDvXuLAIViGbRyr-135" value="" style="curved=1;endArrow=classic;html=1;rounded=0;exitX=0.5;exitY=1;exitDx=0;exitDy=0;entryX=0;entryY=0.5;entryDx=0;entryDy=0;" parent="1" source="vSDdu6eOxFjw2Nqs_4SC-16" target="WK32DhDvXuLAIViGbRyr-132" edge="1">
          <mxGeometry width="50" height="50" relative="1" as="geometry">
            <mxPoint x="1589" y="194" as="sourcePoint" />
            <mxPoint x="1740" y="470" as="targetPoint" />
            <Array as="points">
              <mxPoint x="1655" y="550" />
            </Array>
          </mxGeometry>
        </mxCell>
        <mxCell id="WK32DhDvXuLAIViGbRyr-136" value="" style="curved=1;endArrow=classic;html=1;rounded=0;exitX=0.5;exitY=1;exitDx=0;exitDy=0;entryX=0.25;entryY=0;entryDx=0;entryDy=0;" parent="1" source="vSDdu6eOxFjw2Nqs_4SC-15" target="WK32DhDvXuLAIViGbRyr-132" edge="1">
          <mxGeometry width="50" height="50" relative="1" as="geometry">
            <mxPoint x="1650" y="350" as="sourcePoint" />
            <mxPoint x="1700" y="300" as="targetPoint" />
            <Array as="points">
              <mxPoint x="1622" y="385" />
            </Array>
          </mxGeometry>
        </mxCell>
        <mxCell id="WK32DhDvXuLAIViGbRyr-137" value="" style="curved=1;endArrow=classic;html=1;rounded=0;exitX=0.5;exitY=1;exitDx=0;exitDy=0;entryX=0.75;entryY=0;entryDx=0;entryDy=0;" parent="1" source="vSDdu6eOxFjw2Nqs_4SC-13" target="WK32DhDvXuLAIViGbRyr-132" edge="1">
          <mxGeometry width="50" height="50" relative="1" as="geometry">
            <mxPoint x="1589" y="357" as="sourcePoint" />
            <mxPoint x="1651" y="323" as="targetPoint" />
            <Array as="points">
              <mxPoint x="1625" y="231" />
            </Array>
          </mxGeometry>
        </mxCell>
        <mxCell id="WK32DhDvXuLAIViGbRyr-141" style="edgeStyle=orthogonalEdgeStyle;rounded=0;orthogonalLoop=1;jettySize=auto;html=1;exitX=0.5;exitY=1;exitDx=0;exitDy=0;entryX=0.5;entryY=0;entryDx=0;entryDy=0;" parent="1" source="WK32DhDvXuLAIViGbRyr-138" target="WK32DhDvXuLAIViGbRyr-140" edge="1">
          <mxGeometry relative="1" as="geometry" />
        </mxCell>
        <mxCell id="WK32DhDvXuLAIViGbRyr-138" value="&lt;b&gt;&lt;font style=&quot;font-size: 18px;&quot;&gt;Reshape&lt;/font&gt;&lt;/b&gt;" style="rounded=1;whiteSpace=wrap;html=1;fillColor=#000000;strokeColor=#314354;rotation=-90;fontColor=#ffffff;" parent="1" vertex="1">
          <mxGeometry x="1662" y="283.74" width="105" height="33.74" as="geometry" />
        </mxCell>
        <mxCell id="WK32DhDvXuLAIViGbRyr-144" style="edgeStyle=orthogonalEdgeStyle;rounded=0;orthogonalLoop=1;jettySize=auto;html=1;exitX=0.5;exitY=1;exitDx=0;exitDy=0;entryX=0.5;entryY=0;entryDx=0;entryDy=0;" parent="1" source="WK32DhDvXuLAIViGbRyr-140" target="Iu25lgEWChFgaFbriD92-103" edge="1">
          <mxGeometry relative="1" as="geometry" />
        </mxCell>
        <mxCell id="WK32DhDvXuLAIViGbRyr-140" value="&lt;b&gt;&lt;font style=&quot;font-size: 18px;&quot;&gt;Softmax&lt;/font&gt;&lt;/b&gt;" style="rounded=1;whiteSpace=wrap;html=1;fillColor=#a0522d;fontColor=#ffffff;strokeColor=#6D1F00;rotation=-90;" parent="1" vertex="1">
          <mxGeometry x="1719" y="283.74" width="105" height="33.74" as="geometry" />
        </mxCell>
        <mxCell id="WK32DhDvXuLAIViGbRyr-145" value="" style="strokeWidth=2;html=1;shape=mxgraph.flowchart.annotation_1;align=left;pointerEvents=1;direction=south;fontSize=14;fontStyle=1" parent="1" vertex="1">
          <mxGeometry x="418" y="75" width="408" height="50" as="geometry" />
        </mxCell>
        <mxCell id="WK32DhDvXuLAIViGbRyr-146" value="&lt;font style=&quot;font-size: 18px;&quot;&gt;Sub Graph2&lt;/font&gt;" style="text;html=1;align=center;verticalAlign=middle;resizable=0;points=[];autosize=1;strokeColor=none;fillColor=none;fontSize=14;fontStyle=1" parent="1" vertex="1">
          <mxGeometry x="994" y="32" width="130" height="40" as="geometry" />
        </mxCell>
        <mxCell id="WK32DhDvXuLAIViGbRyr-147" value="" style="strokeWidth=2;html=1;shape=mxgraph.flowchart.annotation_1;align=left;pointerEvents=1;direction=south;fontSize=14;fontStyle=1" parent="1" vertex="1">
          <mxGeometry x="869" y="75.00000000000001" width="396" height="50" as="geometry" />
        </mxCell>
        <mxCell id="WK32DhDvXuLAIViGbRyr-148" value="" style="curved=1;endArrow=classic;html=1;rounded=0;exitX=0.5;exitY=1;exitDx=0;exitDy=0;entryX=0;entryY=0.5;entryDx=0;entryDy=0;" parent="1" source="WK32DhDvXuLAIViGbRyr-51" target="vSDdu6eOxFjw2Nqs_4SC-1" edge="1">
          <mxGeometry width="50" height="50" relative="1" as="geometry">
            <mxPoint x="360" y="440" as="sourcePoint" />
            <mxPoint x="410" y="390" as="targetPoint" />
            <Array as="points">
              <mxPoint x="407" y="422" />
              <mxPoint x="477" y="498" />
              <mxPoint x="760" y="500" />
              <mxPoint x="1283" y="503" />
            </Array>
          </mxGeometry>
        </mxCell>
        <mxCell id="vSDdu6eOxFjw2Nqs_4SC-3" style="edgeStyle=orthogonalEdgeStyle;rounded=0;orthogonalLoop=1;jettySize=auto;html=1;exitX=0.5;exitY=1;exitDx=0;exitDy=0;entryX=0.5;entryY=0;entryDx=0;entryDy=0;" parent="1" source="vSDdu6eOxFjw2Nqs_4SC-1" target="WK32DhDvXuLAIViGbRyr-122" edge="1">
          <mxGeometry relative="1" as="geometry" />
        </mxCell>
        <mxCell id="vSDdu6eOxFjw2Nqs_4SC-1" value="&lt;b&gt;&lt;font style=&quot;font-size: 18px;&quot;&gt;Relu&lt;/font&gt;&lt;/b&gt;" style="rounded=1;whiteSpace=wrap;html=1;fillColor=#a20025;fontColor=#ffffff;strokeColor=#6F0000;rotation=-90;" parent="1" vertex="1">
          <mxGeometry x="1270.25" y="285" width="65" height="33.74" as="geometry" />
        </mxCell>
        <mxCell id="vSDdu6eOxFjw2Nqs_4SC-10" style="edgeStyle=orthogonalEdgeStyle;rounded=0;orthogonalLoop=1;jettySize=auto;html=1;exitX=0.5;exitY=1;exitDx=0;exitDy=0;" parent="1" source="vSDdu6eOxFjw2Nqs_4SC-8" target="vSDdu6eOxFjw2Nqs_4SC-9" edge="1">
          <mxGeometry relative="1" as="geometry" />
        </mxCell>
        <mxCell id="vSDdu6eOxFjw2Nqs_4SC-8" value="&lt;b style=&quot;border-color: var(--border-color);&quot;&gt;&lt;font style=&quot;border-color: var(--border-color); font-size: 18px;&quot;&gt;QLinearConv&lt;/font&gt;&lt;/b&gt;" style="rounded=1;whiteSpace=wrap;html=1;fillColor=#6d8764;fontColor=#ffffff;strokeColor=#3A5431;rotation=-90;" parent="1" vertex="1">
          <mxGeometry x="1044" y="167.51" width="148" height="37.5" as="geometry" />
        </mxCell>
        <mxCell id="vSDdu6eOxFjw2Nqs_4SC-9" value="&lt;b&gt;&lt;font style=&quot;font-size: 18px;&quot;&gt;DequantizeLinear&lt;/font&gt;&lt;/b&gt;" style="rounded=1;whiteSpace=wrap;html=1;fillColor=#d80073;fontColor=#ffffff;strokeColor=#A50040;rotation=-90;" parent="1" vertex="1">
          <mxGeometry x="1094" y="168.76000000000002" width="176.25" height="33.74" as="geometry" />
        </mxCell>
        <mxCell id="vSDdu6eOxFjw2Nqs_4SC-12" value="&lt;b&gt;&lt;font style=&quot;font-size: 18px;&quot;&gt;DequantizeLinear&lt;/font&gt;&lt;/b&gt;" style="rounded=1;whiteSpace=wrap;html=1;fillColor=#d80073;fontColor=#ffffff;strokeColor=#A50040;rotation=-90;" parent="1" vertex="1">
          <mxGeometry x="1456" y="9.000000000000014" width="176.25" height="33.74" as="geometry" />
        </mxCell>
        <mxCell id="vSDdu6eOxFjw2Nqs_4SC-13" value="&lt;b&gt;&lt;font style=&quot;font-size: 18px;&quot;&gt;DequantizeLinear&lt;/font&gt;&lt;/b&gt;" style="rounded=1;whiteSpace=wrap;html=1;fillColor=#d80073;fontColor=#ffffff;strokeColor=#A50040;rotation=-90;" parent="1" vertex="1">
          <mxGeometry x="1456" y="198.13000000000002" width="176.25" height="33.74" as="geometry" />
        </mxCell>
        <mxCell id="vSDdu6eOxFjw2Nqs_4SC-15" value="&lt;b&gt;&lt;font style=&quot;font-size: 18px;&quot;&gt;DequantizeLinear&lt;/font&gt;&lt;/b&gt;" style="rounded=1;whiteSpace=wrap;html=1;fillColor=#d80073;fontColor=#ffffff;strokeColor=#A50040;rotation=-90;" parent="1" vertex="1">
          <mxGeometry x="1456" y="386" width="176.25" height="33.74" as="geometry" />
        </mxCell>
        <mxCell id="vSDdu6eOxFjw2Nqs_4SC-16" value="&lt;b&gt;&lt;font style=&quot;font-size: 18px;&quot;&gt;DequantizeLinear&lt;/font&gt;&lt;/b&gt;" style="rounded=1;whiteSpace=wrap;html=1;fillColor=#d80073;fontColor=#ffffff;strokeColor=#A50040;rotation=-90;" parent="1" vertex="1">
          <mxGeometry x="1456" y="571" width="176.25" height="33.74" as="geometry" />
        </mxCell>
        <mxCell id="vSDdu6eOxFjw2Nqs_4SC-21" style="edgeStyle=orthogonalEdgeStyle;rounded=0;orthogonalLoop=1;jettySize=auto;html=1;exitX=0.5;exitY=1;exitDx=0;exitDy=0;entryX=0.5;entryY=0;entryDx=0;entryDy=0;" parent="1" source="WK32DhDvXuLAIViGbRyr-51" target="vSDdu6eOxFjw2Nqs_4SC-31" edge="1">
          <mxGeometry relative="1" as="geometry">
            <mxPoint x="411.63" y="298.49" as="targetPoint" />
            <mxPoint x="379.9999999999999" y="299.0999999999999" as="sourcePoint" />
          </mxGeometry>
        </mxCell>
        <mxCell id="vSDdu6eOxFjw2Nqs_4SC-22" value="" style="curved=1;endArrow=classic;html=1;rounded=0;fontSize=14;fontStyle=1;exitX=1;exitY=0.5;exitDx=0;exitDy=0;entryX=0.5;entryY=0;entryDx=0;entryDy=0;" parent="1" source="vSDdu6eOxFjw2Nqs_4SC-31" target="vSDdu6eOxFjw2Nqs_4SC-24" edge="1">
          <mxGeometry width="50" height="50" relative="1" as="geometry">
            <mxPoint x="430.63" y="228.49" as="sourcePoint" />
            <mxPoint x="465.63" y="188.49" as="targetPoint" />
            <Array as="points">
              <mxPoint x="435.63" y="208.49" />
              <mxPoint x="445.63" y="188.49" />
            </Array>
          </mxGeometry>
        </mxCell>
        <mxCell id="vSDdu6eOxFjw2Nqs_4SC-23" style="edgeStyle=orthogonalEdgeStyle;rounded=0;orthogonalLoop=1;jettySize=auto;html=1;exitX=0.5;exitY=1;exitDx=0;exitDy=0;entryX=0.5;entryY=0;entryDx=0;entryDy=0;" parent="1" source="vSDdu6eOxFjw2Nqs_4SC-24" target="vSDdu6eOxFjw2Nqs_4SC-26" edge="1">
          <mxGeometry relative="1" as="geometry" />
        </mxCell>
        <mxCell id="vSDdu6eOxFjw2Nqs_4SC-24" value="&lt;b&gt;&lt;font style=&quot;font-size: 18px;&quot;&gt;QuantizeLinear&lt;/font&gt;&lt;/b&gt;" style="rounded=1;whiteSpace=wrap;html=1;fillColor=#647687;fontColor=#ffffff;strokeColor=#314354;rotation=-90;" parent="1" vertex="1">
          <mxGeometry x="402.63" y="168.75" width="159" height="33.74" as="geometry" />
        </mxCell>
        <mxCell id="vSDdu6eOxFjw2Nqs_4SC-25" style="edgeStyle=orthogonalEdgeStyle;rounded=0;orthogonalLoop=1;jettySize=auto;html=1;exitX=0.5;exitY=1;exitDx=0;exitDy=0;entryX=0.5;entryY=0;entryDx=0;entryDy=0;" parent="1" source="vSDdu6eOxFjw2Nqs_4SC-26" target="vSDdu6eOxFjw2Nqs_4SC-28" edge="1">
          <mxGeometry relative="1" as="geometry" />
        </mxCell>
        <mxCell id="vSDdu6eOxFjw2Nqs_4SC-26" value="&lt;b&gt;&lt;font style=&quot;font-size: 18px;&quot;&gt;QLinearConv&lt;/font&gt;&lt;/b&gt;" style="rounded=1;whiteSpace=wrap;html=1;fillColor=#6d8764;fontColor=#ffffff;strokeColor=#3A5431;rotation=-90;" parent="1" vertex="1">
          <mxGeometry x="473.63" y="166" width="143.5" height="37.5" as="geometry" />
        </mxCell>
        <mxCell id="vSDdu6eOxFjw2Nqs_4SC-27" style="edgeStyle=orthogonalEdgeStyle;rounded=0;orthogonalLoop=1;jettySize=auto;html=1;exitX=0.5;exitY=1;exitDx=0;exitDy=0;entryX=0.5;entryY=0;entryDx=0;entryDy=0;" parent="1" source="vSDdu6eOxFjw2Nqs_4SC-28" target="vSDdu6eOxFjw2Nqs_4SC-34" edge="1">
          <mxGeometry relative="1" as="geometry">
            <mxPoint x="741.2600000000001" y="185.3699999999999" as="targetPoint" />
          </mxGeometry>
        </mxCell>
        <mxCell id="vSDdu6eOxFjw2Nqs_4SC-28" value="&lt;b style=&quot;border-color: var(--border-color);&quot;&gt;&lt;font style=&quot;border-color: var(--border-color); font-size: 18px;&quot;&gt;QLinearConv&lt;/font&gt;&lt;/b&gt;" style="rounded=1;whiteSpace=wrap;html=1;fillColor=#6d8764;fontColor=#ffffff;strokeColor=#3A5431;rotation=-90;" parent="1" vertex="1">
          <mxGeometry x="536.63" y="166.87" width="148" height="37.5" as="geometry" />
        </mxCell>
        <mxCell id="vSDdu6eOxFjw2Nqs_4SC-29" value="" style="curved=1;endArrow=classic;html=1;rounded=0;exitX=0.5;exitY=1;exitDx=0;exitDy=0;fontSize=14;fontStyle=1;entryX=1;entryY=0.5;entryDx=0;entryDy=0;" parent="1" source="vSDdu6eOxFjw2Nqs_4SC-35" target="vSDdu6eOxFjw2Nqs_4SC-30" edge="1">
          <mxGeometry width="50" height="50" relative="1" as="geometry">
            <mxPoint x="900.63" y="184.74" as="sourcePoint" />
            <mxPoint x="975.63" y="318.49" as="targetPoint" />
            <Array as="points">
              <mxPoint x="802.63" y="196.49" />
            </Array>
          </mxGeometry>
        </mxCell>
        <mxCell id="vSDdu6eOxFjw2Nqs_4SC-30" value="&lt;b&gt;&lt;font style=&quot;font-size: 18px;&quot;&gt;Sum&lt;/font&gt;&lt;/b&gt;" style="rounded=1;whiteSpace=wrap;html=1;fillColor=#76608a;fontColor=#ffffff;strokeColor=#432D57;rotation=-90;" parent="1" vertex="1">
          <mxGeometry x="765.88" y="283.49" width="65" height="33.74" as="geometry" />
        </mxCell>
        <mxCell id="vSDdu6eOxFjw2Nqs_4SC-31" value="&lt;b&gt;&lt;font style=&quot;font-size: 18px;&quot;&gt;Relu&lt;/font&gt;&lt;/b&gt;" style="rounded=1;whiteSpace=wrap;html=1;fillColor=#a20025;fontColor=#ffffff;strokeColor=#6F0000;rotation=-90;" parent="1" vertex="1">
          <mxGeometry x="395.63" y="282.23" width="65" height="33.74" as="geometry" />
        </mxCell>
        <mxCell id="vSDdu6eOxFjw2Nqs_4SC-32" value="" style="curved=1;endArrow=classic;html=1;rounded=0;exitX=0;exitY=0.5;exitDx=0;exitDy=0;entryX=0;entryY=0.5;entryDx=0;entryDy=0;" parent="1" source="vSDdu6eOxFjw2Nqs_4SC-31" target="vSDdu6eOxFjw2Nqs_4SC-30" edge="1">
          <mxGeometry width="50" height="50" relative="1" as="geometry">
            <mxPoint x="465.63" y="298.49" as="sourcePoint" />
            <mxPoint x="515.63" y="248.49" as="targetPoint" />
            <Array as="points">
              <mxPoint x="445.63" y="408.49" />
              <mxPoint x="585.63" y="428.49" />
              <mxPoint x="793.63" y="415.49" />
            </Array>
          </mxGeometry>
        </mxCell>
        <mxCell id="vSDdu6eOxFjw2Nqs_4SC-33" style="edgeStyle=orthogonalEdgeStyle;rounded=0;orthogonalLoop=1;jettySize=auto;html=1;exitX=0.5;exitY=1;exitDx=0;exitDy=0;" parent="1" source="vSDdu6eOxFjw2Nqs_4SC-34" target="vSDdu6eOxFjw2Nqs_4SC-35" edge="1">
          <mxGeometry relative="1" as="geometry" />
        </mxCell>
        <mxCell id="vSDdu6eOxFjw2Nqs_4SC-34" value="&lt;b style=&quot;border-color: var(--border-color);&quot;&gt;&lt;font style=&quot;border-color: var(--border-color); font-size: 18px;&quot;&gt;QLinearConv&lt;/font&gt;&lt;/b&gt;" style="rounded=1;whiteSpace=wrap;html=1;fillColor=#6d8764;fontColor=#ffffff;strokeColor=#3A5431;rotation=-90;" parent="1" vertex="1">
          <mxGeometry x="604.63" y="166" width="148" height="37.5" as="geometry" />
        </mxCell>
        <mxCell id="vSDdu6eOxFjw2Nqs_4SC-35" value="&lt;b&gt;&lt;font style=&quot;font-size: 18px;&quot;&gt;DequantizeLinear&lt;/font&gt;&lt;/b&gt;" style="rounded=1;whiteSpace=wrap;html=1;fillColor=#d80073;fontColor=#ffffff;strokeColor=#A50040;rotation=-90;" parent="1" vertex="1">
          <mxGeometry x="654.63" y="168.38000000000002" width="176.25" height="33.74" as="geometry" />
        </mxCell>
        <mxCell id="vSDdu6eOxFjw2Nqs_4SC-36" value="&lt;b&gt;&lt;font style=&quot;font-size: 18px;&quot;&gt;DequantizeLinear&lt;/font&gt;&lt;/b&gt;" style="rounded=1;whiteSpace=wrap;html=1;fillColor=#d80073;fontColor=#ffffff;strokeColor=#A50040;rotation=-90;" parent="1" vertex="1">
          <mxGeometry x="181" y="164.39000000000001" width="176.25" height="33.74" as="geometry" />
        </mxCell>
        <mxCell id="vSDdu6eOxFjw2Nqs_4SC-38" value="&lt;b&gt;&lt;font style=&quot;font-size: 18px;&quot;&gt;DequantizeLinear&lt;/font&gt;&lt;/b&gt;" style="rounded=1;whiteSpace=wrap;html=1;fillColor=#d80073;fontColor=#ffffff;strokeColor=#A50040;rotation=-90;" parent="1" vertex="1">
          <mxGeometry x="181" y="393" width="176.25" height="33.74" as="geometry" />
        </mxCell>
        <mxCell id="vSDdu6eOxFjw2Nqs_4SC-39" value="&lt;font style=&quot;font-size: 18px;&quot;&gt;Input&lt;/font&gt;" style="rounded=1;whiteSpace=wrap;html=1;fillColor=#f5f5f5;gradientColor=#b3b3b3;strokeColor=#666666;fontSize=14;fontStyle=1;rotation=-90;" parent="1" vertex="1">
          <mxGeometry x="-17.75" y="278.72" width="409.5" height="35" as="geometry" />
        </mxCell>
        <mxCell id="vSDdu6eOxFjw2Nqs_4SC-45" value="&lt;span style=&quot;font-size: 18px;&quot;&gt;Intermediate Layers&lt;/span&gt;" style="text;html=1;align=center;verticalAlign=middle;resizable=0;points=[];autosize=1;strokeColor=none;fillColor=none;fontSize=14;fontStyle=1" parent="1" vertex="1">
          <mxGeometry x="153" y="499" width="188" height="34" as="geometry" />
        </mxCell>
        <mxCell id="vSDdu6eOxFjw2Nqs_4SC-47" value="" style="endArrow=classic;html=1;rounded=0;exitX=0.388;exitY=-0.118;exitDx=0;exitDy=0;exitPerimeter=0;" parent="1" source="vSDdu6eOxFjw2Nqs_4SC-45" edge="1">
          <mxGeometry width="50" height="50" relative="1" as="geometry">
            <mxPoint x="177" y="469.74" as="sourcePoint" />
            <mxPoint x="227" y="419.74" as="targetPoint" />
          </mxGeometry>
        </mxCell>
        <mxCell id="nN_S8ZsNGnvnw3Le9pxn-1" value="&lt;font style=&quot;font-size: 18px;&quot;&gt;Early Exit Point:&amp;nbsp;conv5_1&lt;/font&gt;" style="text;html=1;align=center;verticalAlign=middle;resizable=0;points=[];autosize=1;strokeColor=none;fillColor=none;fontSize=14;fontStyle=1;rotation=0;" vertex="1" parent="1">
          <mxGeometry x="360" y="518" width="233" height="34" as="geometry" />
        </mxCell>
        <mxCell id="nN_S8ZsNGnvnw3Le9pxn-2" value="" style="endArrow=classic;html=1;rounded=0;exitX=0.121;exitY=0.016;exitDx=0;exitDy=0;exitPerimeter=0;" edge="1" parent="1" source="nN_S8ZsNGnvnw3Le9pxn-1">
          <mxGeometry width="50" height="50" relative="1" as="geometry">
            <mxPoint x="388" y="525" as="sourcePoint" />
            <mxPoint x="388" y="390" as="targetPoint" />
          </mxGeometry>
        </mxCell>
      </root>
    </mxGraphModel>
  </diagram>
</mxfile>
